<mxfile host="app.diagrams.net" modified="2024-07-15T01:48:05.242Z" agent="Mozilla/5.0 (Windows NT 10.0; Win64; x64) AppleWebKit/537.36 (KHTML, like Gecko) Chrome/94.0.4606.71 Safari/537.36 Core/1.94.259.400 QQBrowser/12.6.5709.400" etag="tY4qgieCnIbUjtAR4F0I" version="24.6.5" type="github">
  <diagram name="第 1 页" id="-xguryHVdIeM40GGmxYT">
    <mxGraphModel dx="2389" dy="2152" grid="1" gridSize="10" guides="1" tooltips="1" connect="1" arrows="1" fold="1" page="1" pageScale="1" pageWidth="827" pageHeight="1169" math="0" shadow="0">
      <root>
        <mxCell id="0" />
        <mxCell id="1" parent="0" />
        <mxCell id="99tiGJLgSlBT4EcU3DEi-1" value="v_allcontractinfo" style="rounded=0;whiteSpace=wrap;html=1;" vertex="1" parent="1">
          <mxGeometry x="-110" y="620" width="120" height="60" as="geometry" />
        </mxCell>
        <mxCell id="99tiGJLgSlBT4EcU3DEi-2" value="ContractID&lt;div&gt;合同编码，主键&lt;br&gt;&lt;/div&gt;" style="rounded=0;whiteSpace=wrap;html=1;" vertex="1" parent="1">
          <mxGeometry x="190" y="-170" width="120" height="60" as="geometry" />
        </mxCell>
        <mxCell id="99tiGJLgSlBT4EcU3DEi-3" value="Buyer&lt;div&gt;购房人姓名&lt;br&gt;&lt;/div&gt;" style="rounded=0;whiteSpace=wrap;html=1;" vertex="1" parent="1">
          <mxGeometry x="190" y="-97" width="120" height="60" as="geometry" />
        </mxCell>
        <mxCell id="99tiGJLgSlBT4EcU3DEi-4" value="ContractType&lt;div&gt;合同类型&lt;br&gt;&lt;/div&gt;" style="rounded=0;whiteSpace=wrap;html=1;" vertex="1" parent="1">
          <mxGeometry x="190" y="121" width="120" height="60" as="geometry" />
        </mxCell>
        <mxCell id="99tiGJLgSlBT4EcU3DEi-5" value="PaymentMethod&lt;div&gt;付款方式&lt;br&gt;&lt;/div&gt;" style="rounded=0;whiteSpace=wrap;html=1;" vertex="1" parent="1">
          <mxGeometry x="190" y="48" width="120" height="60" as="geometry" />
        </mxCell>
        <mxCell id="99tiGJLgSlBT4EcU3DEi-6" value="BuyerCard&lt;div&gt;购房人证件号&lt;/div&gt;" style="rounded=0;whiteSpace=wrap;html=1;" vertex="1" parent="1">
          <mxGeometry x="190" y="-25" width="120" height="60" as="geometry" />
        </mxCell>
        <mxCell id="99tiGJLgSlBT4EcU3DEi-7" value="TemplateCode&lt;div&gt;合同模板编号&lt;br&gt;&lt;/div&gt;" style="rounded=0;whiteSpace=wrap;html=1;" vertex="1" parent="1">
          <mxGeometry x="190" y="193" width="120" height="60" as="geometry" />
        </mxCell>
        <mxCell id="99tiGJLgSlBT4EcU3DEi-8" value="OverdueLock&lt;div&gt;是否超过备案&lt;/div&gt;&lt;div&gt;时间被锁定&lt;br&gt;&lt;/div&gt;" style="rounded=0;whiteSpace=wrap;html=1;" vertex="1" parent="1">
          <mxGeometry x="190" y="266" width="120" height="60" as="geometry" />
        </mxCell>
        <mxCell id="99tiGJLgSlBT4EcU3DEi-9" value="ContractArea&lt;div&gt;合同面积&lt;br&gt;&lt;/div&gt;" style="rounded=0;whiteSpace=wrap;html=1;" vertex="1" parent="1">
          <mxGeometry x="190" y="339" width="120" height="60" as="geometry" />
        </mxCell>
        <mxCell id="99tiGJLgSlBT4EcU3DEi-11" value="ContractPrice&lt;div&gt;合同成交价格&lt;br&gt;&lt;/div&gt;" style="rounded=0;whiteSpace=wrap;html=1;" vertex="1" parent="1">
          <mxGeometry x="190" y="411" width="120" height="60" as="geometry" />
        </mxCell>
        <mxCell id="99tiGJLgSlBT4EcU3DEi-12" value="DownPayment&lt;div&gt;首付款/分期首付额&lt;br&gt;&lt;/div&gt;" style="rounded=0;whiteSpace=wrap;html=1;" vertex="1" parent="1">
          <mxGeometry x="190" y="484" width="120" height="60" as="geometry" />
        </mxCell>
        <mxCell id="99tiGJLgSlBT4EcU3DEi-13" value="LoanPrice&lt;div&gt;贷款总额度&lt;br&gt;&lt;/div&gt;" style="rounded=0;whiteSpace=wrap;html=1;" vertex="1" parent="1">
          <mxGeometry x="190" y="557" width="120" height="60" as="geometry" />
        </mxCell>
        <mxCell id="99tiGJLgSlBT4EcU3DEi-14" value="CommerciaLoanPrice&lt;div&gt;商贷金额&lt;br&gt;&lt;/div&gt;" style="rounded=0;whiteSpace=wrap;html=1;" vertex="1" parent="1">
          <mxGeometry x="190" y="629" width="120" height="60" as="geometry" />
        </mxCell>
        <mxCell id="99tiGJLgSlBT4EcU3DEi-15" value="ProvidentFundLoanPrice&lt;div&gt;公积金贷款金额&lt;br&gt;&lt;/div&gt;" style="rounded=0;whiteSpace=wrap;html=1;" vertex="1" parent="1">
          <mxGeometry x="190" y="702" width="120" height="60" as="geometry" />
        </mxCell>
        <mxCell id="99tiGJLgSlBT4EcU3DEi-16" value="OtherLoanPrice&lt;div&gt;其他贷款额&lt;br&gt;&lt;/div&gt;" style="rounded=0;whiteSpace=wrap;html=1;" vertex="1" parent="1">
          <mxGeometry x="190" y="775" width="120" height="60" as="geometry" />
        </mxCell>
        <mxCell id="99tiGJLgSlBT4EcU3DEi-17" value="IsDelete&lt;div&gt;是否删除&lt;br&gt;&lt;/div&gt;" style="rounded=0;whiteSpace=wrap;html=1;" vertex="1" parent="1">
          <mxGeometry x="190" y="847" width="120" height="60" as="geometry" />
        </mxCell>
        <mxCell id="99tiGJLgSlBT4EcU3DEi-18" value="data_contractinfo&lt;div&gt;商品房买卖合同&lt;/div&gt;" style="rounded=0;whiteSpace=wrap;html=1;" vertex="1" parent="1">
          <mxGeometry x="40" y="340" width="120" height="60" as="geometry" />
        </mxCell>
        <mxCell id="99tiGJLgSlBT4EcU3DEi-19" value="" style="shape=curlyBracket;whiteSpace=wrap;html=1;rounded=1;labelPosition=left;verticalLabelPosition=middle;align=right;verticalAlign=middle;size=0.5;" vertex="1" parent="1">
          <mxGeometry x="160" y="-140" width="20" height="1020" as="geometry" />
        </mxCell>
        <mxCell id="99tiGJLgSlBT4EcU3DEi-28" value="data_contractinfobackup&lt;div&gt;商品房买卖合同备份&lt;br&gt;&lt;/div&gt;" style="rounded=0;whiteSpace=wrap;html=1;" vertex="1" parent="1">
          <mxGeometry x="40" y="920" width="120" height="60" as="geometry" />
        </mxCell>
        <mxCell id="99tiGJLgSlBT4EcU3DEi-29" value="" style="shape=curlyBracket;whiteSpace=wrap;html=1;rounded=1;labelPosition=left;verticalLabelPosition=middle;align=right;verticalAlign=middle;size=0.5;" vertex="1" parent="1">
          <mxGeometry x="10" y="370" width="20" height="580" as="geometry" />
        </mxCell>
        <mxCell id="99tiGJLgSlBT4EcU3DEi-31" value="" style="endArrow=classic;html=1;rounded=0;exitX=1;exitY=0.5;exitDx=0;exitDy=0;" edge="1" parent="1" source="99tiGJLgSlBT4EcU3DEi-28" target="99tiGJLgSlBT4EcU3DEi-32">
          <mxGeometry width="50" height="50" relative="1" as="geometry">
            <mxPoint x="90" y="920" as="sourcePoint" />
            <mxPoint x="180" y="950" as="targetPoint" />
          </mxGeometry>
        </mxCell>
        <mxCell id="99tiGJLgSlBT4EcU3DEi-32" value="同data_contractinfo（IsDelete=1）" style="rounded=0;whiteSpace=wrap;html=1;" vertex="1" parent="1">
          <mxGeometry x="190" y="920" width="120" height="60" as="geometry" />
        </mxCell>
      </root>
    </mxGraphModel>
  </diagram>
</mxfile>
